<?xml version="1.0" standalone="no"?>
<!DOCTYPE svg PUBLIC "-//W3C//DTD SVG 20010904//EN"
 "http://www.w3.org/TR/2001/REC-SVG-20010904/DTD/svg10.dtd">
<svg version="1.0" xmlns="http://www.w3.org/2000/svg"
 width="4881.000000pt" height="4880.000000pt" viewBox="0 0 4881.000000 4880.000000"
 preserveAspectRatio="xMidYMid meet">

<g transform="translate(0.000000,4880.000000) scale(0.100000,-0.100000)"
fill="#ffffff" stroke="none">
<path d="M12195 36600 l-12200 -12200 785 -787 c3332 -3343 23608 -23613
23620 -23613 8 0 546 531 1195 1180 l1180 1180 -11020 11020 -11020 11020
11018 11018 11017 11017 -1183 1183 c-650 650 -1184 1182 -1187 1182 -3 0
-5495 -5490 -12205 -12200z"/>
<path d="M16272 35297 c-5963 -5963 -10842 -10847 -10842 -10852 0 -6 4880
-4890 10845 -10855 l10845 -10845 10845 10845 c5965 5965 10845 10849 10845
10855 0 10 -21680 21695 -21690 21695 -3 0 -4884 -4879 -10848 -10843z m21651
-55 l10797 -10797 -10800 -10800 -10800 -10800 -10800 10800 -10800 10800
10797 10797 c5939 5939 10800 10798 10803 10798 3 0 4864 -4859 10803 -10798z"/>
<path d="M11710 24445 l0 -4026 2073 4 c2104 4 2116 4 2462 42 329 37 663 108
890 190 152 56 461 200 630 294 176 98 413 257 570 382 162 128 460 425 587
585 422 530 715 1168 828 1804 36 208 51 372 57 625 16 685 -110 1275 -397
1860 -229 468 -497 825 -908 1209 -311 290 -539 445 -937 637 -386 186 -690
285 -1070 348 -392 65 -633 71 -2892 71 l-1893 0 0 -4025z m4055 2415 c402
-27 756 -111 1029 -244 127 -62 186 -99 381 -240 294 -213 510 -463 679 -786
283 -544 369 -1073 260 -1595 -65 -306 -223 -666 -425 -967 -243 -361 -602
-631 -1104 -831 -176 -70 -278 -100 -436 -126 -255 -42 -304 -44 -1566 -48
l-1223 -5 0 2426 0 2426 1128 0 c651 0 1190 -5 1277 -10z"/>
<path d="M20590 24445 l0 -4025 830 0 830 0 0 4025 0 4025 -830 0 -830 0 0
-4025z"/>
<path d="M23070 24445 l0 -4025 825 0 825 0 0 4025 0 4025 -825 0 -825 0 0
-4025z"/>
<path d="M29285 28459 c-736 -49 -1417 -291 -2009 -712 -433 -307 -883 -775
-1136 -1180 -239 -383 -430 -879 -514 -1337 -24 -130 -43 -282 -68 -535 -8
-86 -12 -717 -15 -2197 l-4 -2078 830 0 830 0 4 2058 c4 2251 0 2112 62 2432
163 836 669 1440 1503 1795 201 86 505 155 744 171 175 11 485 -32 721 -101
182 -52 502 -210 703 -346 560 -378 910 -951 1014 -1659 38 -264 40 -358 40
-2377 l0 -1973 830 0 830 0 0 1823 c0 1002 -5 1952 -10 2111 -23 681 -88 1058
-271 1554 -56 153 -210 470 -307 631 -274 456 -750 942 -1252 1278 -724 484
-1592 705 -2525 642z"/>
<path d="M39555 28460 c-1608 -6 -1520 -3 -1856 -71 -314 -63 -694 -191 -1028
-346 -455 -210 -998 -654 -1376 -1124 -189 -234 -345 -483 -485 -773 -208
-430 -293 -776 -362 -1481 -8 -86 -12 -705 -15 -2182 l-4 -2063 831 0 830 0 0
1610 0 1610 3220 0 3220 0 0 800 0 800 -3145 0 -3145 0 16 43 c39 103 189 392
261 502 210 320 426 528 747 720 308 185 561 271 956 326 144 20 216 22 1025
29 479 4 1413 8 2078 9 l1207 1 0 800 0 800 -757 -2 c-417 -2 -1415 -5 -2218
-8z"/>
</g>
</svg>
